# Blender v2.76 (sub 0) OBJ File: ''
# www.blender.org
mtllib skybox.mtl
o Cube
v 75.723579 -75.723579 -75.723579
v 75.723579 -75.723579 75.723579
v -75.723579 -75.723579 75.723564
v -75.723549 -75.723579 -75.723610
v 75.723618 75.723579 -75.723541
v 75.723534 75.723579 75.723625
v -75.723610 75.723579 75.723549
v -75.723572 75.723579 -75.723579
vt 0.250772 0.749520
vt 0.499998 0.749998
vt 0.499968 0.999998
vt 0.250184 0.500239
vt 0.250671 0.250642
vt 0.499722 0.250462
vt 0.000407 0.749920
vt 0.000248 0.501036
vt 0.752780 0.749797
vt 0.753220 0.500813
vt 0.999918 0.500662
vt 0.499672 0.500529
vt 0.250059 0.999969
vt 0.999219 0.749757
vn 0.000000 1.000000 0.000000
vn 0.000000 -1.000000 0.000000
vn -1.000000 -0.000000 -0.000000
vn 0.000000 -0.000000 -1.000000
vn 1.000000 0.000000 0.000000
vn -0.000000 -0.000000 1.000000
usemtl Material
s off
f 1/1/1 4/2/1 3/3/1
f 5/4/2 6/5/2 7/6/2
f 2/7/3 6/8/3 5/4/3
f 3/9/4 7/10/4 6/11/4
f 3/9/5 4/2/5 8/12/5
f 8/12/6 4/2/6 1/1/6
f 2/13/1 1/1/1 3/3/1
f 8/12/2 5/4/2 7/6/2
f 1/1/3 2/7/3 5/4/3
f 2/14/4 3/9/4 6/11/4
f 7/10/5 3/9/5 8/12/5
f 5/4/6 8/12/6 1/1/6
